<mxfile host="app.diagrams.net" modified="2023-10-18T04:57:34.905Z" agent="Mozilla/5.0 (Windows NT 10.0; Win64; x64) AppleWebKit/537.36 (KHTML, like Gecko) Chrome/118.0.0.0 Safari/537.36" version="22.0.4" etag="Jk5K-Z9K7DxPdVHf-NP5" type="github">
  <diagram name="Page-1" id="6n-kiWiX0PNvE4U8WySC">
    <mxGraphModel>
      <root>
        <mxCell id="0" />
        <mxCell id="1" parent="0" />
      </root>
    </mxGraphModel>
  </diagram>
</mxfile>
